<svg width="32" height="33" viewBox="0 0 32 33" fill="none" xmlns="http://www.w3.org/2000/svg">
<path d="M21.2966 17.6803C20.7688 17.6806 20.243 17.7436 19.7301 17.868V8.98751H22.2476C22.335 8.98726 22.4203 8.96085 22.4925 8.91167C22.5648 8.8625 22.6206 8.79282 22.6529 8.71162C22.6852 8.63041 22.6924 8.5414 22.6736 8.45605C22.6549 8.37071 22.611 8.29294 22.5476 8.23276L16.0936 2.10776C16.0123 2.03058 15.9045 1.98755 15.7925 1.98755C15.6804 1.98755 15.5726 2.03058 15.4913 2.10776L9.03635 8.23276C8.97298 8.29294 8.92908 8.37071 8.91032 8.45605C8.89155 8.5414 8.89877 8.63041 8.93105 8.71162C8.96332 8.79282 9.01918 8.8625 9.09142 8.91167C9.16365 8.96085 9.24896 8.98726 9.33635 8.98751H11.8551V15.5323H5.2251C4.91027 15.5327 4.60846 15.6579 4.38585 15.8805C4.16323 16.1031 4.03799 16.4049 4.0376 16.7198V18.8713C4.03886 19.1457 4.13615 19.4111 4.3126 19.6213C4.13615 19.8315 4.03886 20.0968 4.0376 20.3713V22.5213C4.03886 22.7957 4.13615 23.0611 4.3126 23.2713C4.13615 23.4815 4.03886 23.7468 4.0376 24.0213V26.1738C4.03886 26.4482 4.13615 26.7136 4.3126 26.9238C4.13615 27.134 4.03886 27.3993 4.0376 27.6738V29.8238C4.03799 30.1386 4.16323 30.4404 4.38585 30.663C4.60846 30.8856 4.91027 31.0109 5.2251 31.0113H15.7251C16.0399 31.0109 16.3417 30.8856 16.5643 30.663C16.787 30.4404 16.9122 30.1386 16.9126 29.8238V29.3615C17.7236 30.0704 18.6944 30.5721 19.7417 30.8237C20.7891 31.0753 21.8818 31.0692 22.9263 30.8061C23.9708 30.543 24.936 30.0307 25.7392 29.3129C26.5423 28.5952 27.1596 27.6935 27.538 26.685C27.9165 25.6765 28.0448 24.5914 27.9121 23.5224C27.7794 22.4535 27.3896 21.4327 26.776 20.5473C26.1625 19.662 25.3435 18.9386 24.3892 18.4391C23.4349 17.9395 22.3737 17.6787 21.2966 17.679V17.6803ZM12.2926 8.11251H10.4343L15.7926 3.02826L21.1501 8.11251H19.2926C19.1766 8.11258 19.0653 8.1587 18.9833 8.24073C18.9013 8.32276 18.8552 8.434 18.8551 8.55001V18.1455C18.0674 18.4573 17.3463 18.9161 16.7301 19.4975C16.8486 19.3105 16.9119 19.0939 16.9128 18.8725V16.7198C16.9125 16.4049 16.7873 16.1031 16.5647 15.8804C16.342 15.6578 16.0402 15.5326 15.7253 15.5323H12.7301V8.55001C12.73 8.434 12.6839 8.32276 12.6019 8.24073C12.5198 8.1587 12.4086 8.11258 12.2926 8.11251ZM4.9126 26.175V24.0225C4.9126 23.9396 4.94552 23.8601 5.00413 23.8015C5.06273 23.7429 5.14222 23.71 5.2251 23.71H14.6613C14.6413 23.9198 14.6301 24.132 14.6301 24.3468C14.6301 25.075 14.7499 25.7982 14.9846 26.4875H5.2251C5.14222 26.4875 5.06273 26.4546 5.00413 26.396C4.94552 26.3374 4.9126 26.2579 4.9126 26.175ZM14.8051 22.835H5.2251C5.14224 22.8349 5.06279 22.802 5.0042 22.7434C4.94561 22.6848 4.91266 22.6054 4.9126 22.5225V20.3725C4.91266 20.2897 4.94561 20.2102 5.0042 20.1516C5.06279 20.093 5.14224 20.0601 5.2251 20.06H15.7251C15.7913 20.0606 15.8555 20.0823 15.9084 20.1221C15.9613 20.1618 16.0001 20.2174 16.0191 20.2808C15.4358 21.0352 15.0218 21.9063 14.8051 22.835ZM4.91185 16.7198C4.91198 16.6369 4.94495 16.5575 5.00352 16.4989C5.0621 16.4404 5.14151 16.4074 5.22435 16.4073H15.7243C15.8072 16.4073 15.8867 16.4403 15.9452 16.4989C16.0038 16.5575 16.0368 16.6369 16.0368 16.7198V18.8713C16.0368 18.9541 16.0039 19.0336 15.9453 19.0922C15.8867 19.1508 15.8072 19.1838 15.7243 19.1838H5.22435C5.14149 19.1837 5.06204 19.1508 5.00345 19.0922C4.94486 19.0336 4.91191 18.9541 4.91185 18.8713V16.7198ZM15.7251 30.1375H5.2251C5.14224 30.1374 5.06279 30.1045 5.0042 30.0459C4.94561 29.9873 4.91266 29.9079 4.9126 29.825V27.675C4.91266 27.5922 4.94561 27.5127 5.0042 27.4541C5.06279 27.3955 5.14224 27.3626 5.2251 27.3625H15.3541C15.5472 27.7418 15.7761 28.1017 16.0376 28.4375V29.825C16.0375 29.9079 16.0045 29.9873 15.9459 30.0458C15.8873 30.1044 15.8079 30.1374 15.7251 30.1375ZM21.2966 30.1375C20.4526 30.1383 19.6186 29.9545 18.8532 29.5989C18.0877 29.2433 17.4093 28.7245 16.8656 28.079C16.3219 27.4334 15.926 26.6767 15.7057 25.8619C15.4854 25.0472 15.446 24.1941 15.5903 23.3625L15.5916 23.3553C15.7804 22.2686 16.2757 21.2584 17.0191 20.4436C17.7625 19.6288 18.7232 19.0433 19.788 18.7558C20.8529 18.4684 21.9777 18.4911 23.0301 18.8212C24.0825 19.1512 25.0188 19.775 25.7288 20.6191C26.4388 21.4632 26.893 22.4925 27.0379 23.5859C27.1828 24.6793 27.0125 25.7913 26.5469 26.7912C26.0813 27.7911 25.3398 28.6373 24.4097 29.2301C23.4796 29.823 22.3996 30.1376 21.2966 30.1375Z" fill="#4AA189"/>
<path d="M20.8567 22.1725H23.0432C23.1592 22.1725 23.2705 22.1264 23.3525 22.0443C23.4346 21.9623 23.4807 21.851 23.4807 21.735C23.4807 21.619 23.4346 21.5077 23.3525 21.4256C23.2705 21.3436 23.1592 21.2975 23.0432 21.2975H21.7347V20.5605C21.7347 20.4445 21.6886 20.3332 21.6065 20.2511C21.5245 20.1691 21.4132 20.123 21.2972 20.123C21.1811 20.123 21.0699 20.1691 20.9878 20.2511C20.9058 20.3332 20.8597 20.4445 20.8597 20.5605V21.2975H20.8567C20.6259 21.2947 20.3969 21.3378 20.1829 21.4242C19.9689 21.5106 19.7742 21.6386 19.61 21.8008C19.4458 21.963 19.3155 22.1562 19.2266 22.3691C19.1376 22.5821 19.0918 22.8106 19.0918 23.0414C19.0918 23.2721 19.1376 23.5006 19.2266 23.7136C19.3155 23.9265 19.4458 24.1197 19.61 24.2819C19.7742 24.4441 19.9689 24.5721 20.1829 24.6585C20.3969 24.7449 20.6259 24.788 20.8567 24.7852H21.7369C21.9648 24.7891 22.1821 24.8823 22.3419 25.0449C22.5016 25.2074 22.5912 25.4262 22.5912 25.6541C22.5912 25.882 22.5016 26.1008 22.3419 26.2634C22.1821 26.4259 21.9648 26.5191 21.7369 26.523H19.5502C19.4341 26.523 19.3229 26.5691 19.2408 26.6511C19.1588 26.7332 19.1127 26.8445 19.1127 26.9605C19.1127 27.0765 19.1588 27.1878 19.2408 27.2698C19.3229 27.3519 19.4341 27.398 19.5502 27.398H20.8597V28.133C20.8597 28.249 20.9058 28.3603 20.9878 28.4423C21.0699 28.5244 21.1811 28.5705 21.2972 28.5705C21.4132 28.5705 21.5245 28.5244 21.6065 28.4423C21.6886 28.3603 21.7347 28.249 21.7347 28.133V27.398H21.7369C22.1958 27.3925 22.634 27.2063 22.9566 26.8799C23.2792 26.5535 23.46 26.113 23.46 25.6541C23.46 25.1952 23.2792 24.7548 22.9566 24.4283C22.634 24.1019 22.1958 23.9157 21.7369 23.9102H20.8567C20.7413 23.9122 20.6268 23.8912 20.5196 23.8484C20.4125 23.8056 20.315 23.7419 20.2327 23.661C20.1504 23.5801 20.0851 23.4837 20.0405 23.3773C19.9959 23.2709 19.9729 23.1567 19.9729 23.0414C19.9729 22.926 19.9959 22.8118 20.0405 22.7054C20.0851 22.599 20.1504 22.5026 20.2327 22.4217C20.315 22.3408 20.4125 22.2771 20.5196 22.2343C20.6268 22.1916 20.7413 22.1705 20.8567 22.1725Z" fill="#4AA189"/>
</svg>
