<svg width="48" height="48" viewBox="0 0 48 48" fill="none" xmlns="http://www.w3.org/2000/svg">
<g clip-path="url(#clip0_1_3331)">
<path d="M24 0C10.7666 0 0 10.7666 0 24C0 37.2334 10.7666 48 24 48C37.2334 48 48 37.2334 48 24C48 10.7666 37.2334 0 24 0ZM24 45.913C11.9165 45.913 2.08696 36.0835 2.08696 24C2.08696 11.9165 11.9165 2.08696 24 2.08696C36.0835 2.08696 45.913 11.9165 45.913 24C45.913 36.0835 36.0835 45.913 24 45.913Z" fill="#FF0000"/>
<path d="M10 18C10 17.4477 10.4477 17 11 17H20C20.5523 17 21 17.4477 21 18C21 18.5523 20.5523 19 20 19H11C10.4477 19 10 18.5523 10 18Z" fill="#FF0000"/>
<path d="M27 18C27 17.4477 27.4477 17 28 17H37C37.5523 17 38 17.4477 38 18C38 18.5523 37.5523 19 37 19H28C27.4477 19 27 18.5523 27 18Z" fill="#FF0000"/>
<path d="M15 29C14.4477 29 14 29.4477 14 30C14 30.5523 14.4477 31 15 31H34C34.5523 31 35 30.5523 35 30C35 29.4477 34.5523 29 34 29H15Z" fill="#FF0000"/>
</g>
<defs>
<clipPath id="clip0_1_3331">
<rect width="48" height="48" fill="white"/>
</clipPath>
</defs>
</svg>
