<svg width="22" height="16" viewBox="0 0 22 16" fill="none" xmlns="http://www.w3.org/2000/svg">
<g clip-path="url(#clip0_317_534)">
<path d="M0 0H22V16.0002H0V0Z" fill="white"/>
<path d="M12.375 -0.000488281H9.625V6.49949H0V9.49949H9.625V15.9995H12.375V9.49949H22V6.49949H12.375V-0.000488281Z" fill="#D80027"/>
<path d="M16.9205 10.7825L22.0001 13.861V10.7825H16.9205ZM13.3914 10.7825L22.0001 15.9998V14.5245L15.8258 10.7825H13.3914ZM19.707 15.9998L13.3914 12.1718V15.9998H19.707Z" fill="#0052B4"/>
<path d="M13.3914 10.7825L22.0001 15.9998V14.5245L15.8258 10.7825H13.3914Z" fill="white"/>
<path d="M13.3914 10.7825L22.0001 15.9998V14.5245L15.8258 10.7825H13.3914Z" fill="#D80027"/>
<path d="M3.88184 10.7822L0 13.1349V10.7822H3.88184ZM8.6087 11.4457V15.9997H1.09532L8.6087 11.4457Z" fill="#0052B4"/>
<path d="M6.17431 10.7825L0 14.5245V15.9998L8.6087 10.7825H6.17431Z" fill="#D80027"/>
<path d="M5.07955 5.21689L0 2.13833V5.21689H5.07955ZM8.6087 5.21689L0 -0.000488281V1.47486L6.17431 5.21689H8.6087ZM2.29307 -0.000488281L8.6087 3.82752V-0.000488281H2.29307Z" fill="#0052B4"/>
<path d="M8.6087 5.21689L0 -0.000488281V1.47486L6.17431 5.21689H8.6087Z" fill="white"/>
<path d="M8.6087 5.21689L0 -0.000488281V1.47486L6.17431 5.21689H8.6087Z" fill="#D80027"/>
<path d="M18.1182 5.21743L22.0001 2.86477V5.21743H18.1182ZM13.3914 4.55396V0H20.9047L13.3914 4.55396Z" fill="#0052B4"/>
<path d="M15.8258 5.21714L22.0001 1.4751V-0.000244141L13.3914 5.21714H15.8258Z" fill="#D80027"/>
</g>
<defs>
<clipPath id="clip0_317_534">
<rect width="22" height="16" rx="2" fill="white"/>
</clipPath>
</defs>
</svg>
