<svg width="95" height="32" viewBox="0 0 95 32" fill="none" xmlns="http://www.w3.org/2000/svg">
<mask id="mask0_282_2690" style="mask-type:alpha" maskUnits="userSpaceOnUse" x="0" y="0" width="32" height="32">
<path fill-rule="evenodd" clip-rule="evenodd" d="M19.0351 28.2404L19.3282 28.8644L20.2076 30.5843C18.2026 31.7698 14.5171 31.6021 12.5746 31.1966C6.65351 29.9486 2.17458 25.7093 0.579981 19.914C-3.38697 5.58956 13.837 -6.30525 26.6368 4.98897L21.0713 10.5932C13.923 3.92039 4.58601 12.6562 8.92425 19.9413C11.0543 23.5215 13.454 22.7571 15.6387 23.9661L15.7013 26.1188L16.7213 25.9394C16.7839 26.0525 16.823 26.1929 16.8503 26.2982L17.6398 28.8722L19.0194 28.2365L19.0312 28.2482L19.0351 28.2404ZM25.648 13.4713C26.414 12.859 27.18 12.7069 28.1884 12.8473C28.1376 13.0501 29.3374 13.561 26.9768 13.9549C26.0974 14.0953 25.9684 13.7911 25.8043 13.6741C25.7769 13.6468 25.7027 13.5454 25.6519 13.4713H25.648ZM31.0844 15.8932C31.0336 16.0453 32.2061 16.759 29.8963 16.7473C29.3843 16.7473 28.9153 16.5562 28.5323 16.4275C28.7355 14.926 30.4591 14.965 31.0962 15.8815L31.0844 15.8932ZM26.1717 15.6514V16.1857L26.1326 16.7083L25.3666 17.2426L23.0802 16.72C23.2209 16.1233 23.2482 15.7645 23.3108 15.2185L24.5497 15.0001L25.0617 14.9494L25.6362 14.8597L26.0075 15.0781L26.1756 15.6514H26.1717ZM20.4772 27.7724C20.36 27.8114 19.8519 27.8621 19.7386 27.8504C19.6096 27.8231 19.4572 27.7724 19.3282 27.749C19.1992 27.7217 19.0585 27.6359 18.9217 27.5696C18.7537 24.8553 18.1831 27.7997 17.249 23.8647L19.4572 22.7298C20.2506 23.9544 20.2115 24.9567 21.3605 24.4731L22.1774 24.1143L22.791 24.5979L23.8775 26.0876L25.6519 24.0129L24.5419 22.8039L23.7524 22.371L21.939 23.8725L21.5051 23.619C21.3253 22.956 21.3371 23.2758 21.0948 22.6518C20.6336 21.4545 21.5794 20.1051 22.9825 20.6901L24.1941 21.5676C25.7144 19.29 24.5888 21.2751 23.0059 18.8025C22.9668 18.7402 22.8926 18.6115 22.8652 18.5101C23.9635 18.0499 23.2092 17.9875 24.5888 18.5998L25.5581 19.3368L24.9327 20.265L27.2308 21.4857L28.0594 19.7151L25.8277 18.8883C25.9176 18.4165 25.9802 18.046 25.4838 17.9836L26.4296 17.3713L26.9533 17.4337L28.2431 17.6014C28.2548 18.124 28.2314 18.046 28.2431 18.67L28.2939 19.563C28.2939 19.641 28.3056 19.7814 28.333 19.8828L30.3887 20.1753C30.2363 21.6534 29.4703 23.0301 28.7043 24.3795L26.6758 24.5706L27.5943 25.9199C26.074 27.6125 24.0963 29.3324 22.2204 29.855C21.6185 28.5953 21.6849 27.9947 20.4577 27.8426L20.4851 27.7646L20.4772 27.7724Z" fill="url(#paint0_linear_282_2690)"/>
</mask>
<g mask="url(#mask0_282_2690)">
<path fill-rule="evenodd" clip-rule="evenodd" d="M19.0351 28.2404L19.3282 28.8644L20.2076 30.5843C18.2026 31.7698 14.5171 31.6021 12.5746 31.1966C6.65351 29.9486 2.17458 25.7093 0.579981 19.914C-3.38697 5.58956 13.837 -6.30525 26.6368 4.98897L21.0713 10.5932C13.923 3.92039 4.58601 12.6562 8.92425 19.9413C11.0543 23.5215 13.454 22.7571 15.6387 23.9661L15.7013 26.1188L16.7213 25.9394C16.7839 26.0525 16.823 26.1929 16.8503 26.2982L17.6398 28.8722L19.0194 28.2365L19.0312 28.2482L19.0351 28.2404ZM25.648 13.4713C26.414 12.859 27.18 12.7069 28.1884 12.8473C28.1376 13.0501 29.3374 13.561 26.9768 13.9549C26.0974 14.0953 25.9684 13.7911 25.8043 13.6741C25.7769 13.6468 25.7027 13.5454 25.6519 13.4713H25.648ZM31.0844 15.8932C31.0336 16.0453 32.2061 16.759 29.8963 16.7473C29.3843 16.7473 28.9153 16.5562 28.5323 16.4275C28.7355 14.926 30.4591 14.965 31.0962 15.8815L31.0844 15.8932ZM26.1717 15.6514V16.1857L26.1326 16.7083L25.3666 17.2426L23.0802 16.72C23.2209 16.1233 23.2482 15.7645 23.3108 15.2185L24.5497 15.0001L25.0617 14.9494L25.6362 14.8597L26.0075 15.0781L26.1756 15.6514H26.1717ZM20.4772 27.7724C20.36 27.8114 19.8519 27.8621 19.7386 27.8504C19.6096 27.8231 19.4572 27.7724 19.3282 27.749C19.1992 27.7217 19.0585 27.6359 18.9217 27.5696C18.7537 24.8553 18.1831 27.7997 17.249 23.8647L19.4572 22.7298C20.2506 23.9544 20.2115 24.9567 21.3605 24.4731L22.1774 24.1143L22.791 24.5979L23.8775 26.0876L25.6519 24.0129L24.5419 22.8039L23.7524 22.371L21.939 23.8725L21.5051 23.619C21.3253 22.956 21.3371 23.2758 21.0948 22.6518C20.6336 21.4545 21.5794 20.1051 22.9825 20.6901L24.1941 21.5676C25.7144 19.29 24.5888 21.2751 23.0059 18.8025C22.9668 18.7402 22.8926 18.6115 22.8652 18.5101C23.9635 18.0499 23.2092 17.9875 24.5888 18.5998L25.5581 19.3368L24.9327 20.265L27.2308 21.4857L28.0594 19.7151L25.8277 18.8883C25.9176 18.4165 25.9802 18.046 25.4838 17.9836L26.4296 17.3713L26.9533 17.4337L28.2431 17.6014C28.2548 18.124 28.2314 18.046 28.2431 18.67L28.2939 19.563C28.2939 19.641 28.3056 19.7814 28.333 19.8828L30.3887 20.1753C30.2363 21.6534 29.4703 23.0301 28.7043 24.3795L26.6758 24.5706L27.5943 25.9199C26.074 27.6125 24.0963 29.3324 22.2204 29.855C21.6185 28.5953 21.6849 27.9947 20.4577 27.8426L20.4851 27.7646L20.4772 27.7724Z" fill="url(#paint1_linear_282_2690)"/>
<ellipse cx="26.3237" cy="20.5569" rx="9.50335" ry="8.64377" fill="url(#paint2_radial_282_2690)"/>
<ellipse cx="9.50286" cy="3.69268" rx="9.50286" ry="3.69268" transform="matrix(0.987875 0.155253 -0.155905 0.987772 1.15137 25.0046)" fill="url(#paint3_radial_282_2690)"/>
<ellipse cx="6.1474" cy="2.68192" rx="6.1474" ry="2.68192" transform="matrix(0.987875 0.155253 -0.155905 0.987772 8.40527 4.02466)" fill="url(#paint4_radial_282_2690)"/>
<ellipse cx="8.54827" cy="3.32807" rx="8.54827" ry="3.32807" transform="matrix(0.987875 0.155253 -0.155905 0.987772 4.40186 -3.52808)" fill="url(#paint5_radial_282_2690)"/>
<ellipse cx="8.54827" cy="8.1085" rx="8.54827" ry="8.1085" transform="matrix(0.987875 0.155253 -0.155905 0.987772 0.00537109 6.54224)" fill="url(#paint6_radial_282_2690)"/>
</g>
<path d="M33.6948 1.13281H40.1178V30.8399H33.6948V1.13281Z" fill="white"/>
<path d="M49.5382 19.6997C49.5382 23.1243 51.2938 25.8887 54.8478 25.8887C58.4019 25.8887 60.1575 23.1243 60.1575 19.6997V8.55958H66.5805V19.6997C66.5805 26.2188 61.9559 31.5 54.8478 31.5C47.7397 31.5 43.1152 26.2188 43.1152 19.6997V8.55958H49.5382V19.6997Z" fill="white"/>
<path d="M82.2823 7.89942C89.3048 7.89942 94.9999 13.1807 94.9999 19.6997C94.9999 26.2188 89.3048 31.5 82.2823 31.5C79.4991 31.5 77.0155 30.1385 75.5596 28.0755V30.8399H69.5648V1.13281H75.9878V10.4163C77.615 8.8484 79.8416 7.89942 82.2823 7.89942ZM75.7309 19.6997C75.7309 23.1243 78.5998 25.8887 82.1539 25.8887C85.7079 25.8887 88.5769 23.1243 88.5769 19.6997C88.5769 16.2752 85.7079 13.5108 82.1539 13.5108C78.5998 13.5108 75.7309 16.2752 75.7309 19.6997Z" fill="white"/>
<defs>
<linearGradient id="paint0_linear_282_2690" x1="28.7624" y1="22.9067" x2="5.40815" y2="9.18392" gradientUnits="userSpaceOnUse">
<stop stop-color="#381CFF"/>
<stop offset="0.495474" stop-color="#3B1DFF"/>
<stop offset="1" stop-color="#FF00FD"/>
</linearGradient>
<linearGradient id="paint1_linear_282_2690" x1="28.7624" y1="22.9067" x2="5.40815" y2="9.18392" gradientUnits="userSpaceOnUse">
<stop stop-color="#381CFF"/>
<stop offset="0.495474" stop-color="#3B1DFF"/>
<stop offset="1" stop-color="#FF00FD"/>
</linearGradient>
<radialGradient id="paint2_radial_282_2690" cx="0" cy="0" r="1" gradientUnits="userSpaceOnUse" gradientTransform="translate(26.3237 20.5569) rotate(90) scale(8.64377 9.50335)">
<stop stop-color="#01C9FD"/>
<stop offset="1" stop-color="#01C9FD" stop-opacity="0"/>
</radialGradient>
<radialGradient id="paint3_radial_282_2690" cx="0" cy="0" r="1" gradientUnits="userSpaceOnUse" gradientTransform="translate(9.50286 3.69268) rotate(90) scale(3.69268 9.50286)">
<stop stop-color="#2428ED"/>
<stop offset="1" stop-color="#2428ED" stop-opacity="0"/>
</radialGradient>
<radialGradient id="paint4_radial_282_2690" cx="0" cy="0" r="1" gradientUnits="userSpaceOnUse" gradientTransform="translate(6.1474 2.68192) rotate(90) scale(2.68192 6.1474)">
<stop stop-color="#B600FF"/>
<stop offset="1" stop-color="#B600FF" stop-opacity="0"/>
</radialGradient>
<radialGradient id="paint5_radial_282_2690" cx="0" cy="0" r="1" gradientUnits="userSpaceOnUse" gradientTransform="translate(8.54827 3.32807) rotate(90) scale(3.32807 8.54827)">
<stop stop-color="#F800FF"/>
<stop offset="1" stop-color="#F601FF" stop-opacity="0"/>
</radialGradient>
<radialGradient id="paint6_radial_282_2690" cx="0" cy="0" r="1" gradientUnits="userSpaceOnUse" gradientTransform="translate(8.54827 8.1085) rotate(90) scale(8.1085 8.54827)">
<stop stop-color="#F800FF"/>
<stop offset="1" stop-color="#F601FF" stop-opacity="0"/>
</radialGradient>
</defs>
</svg>
