<svg width="48" height="48" viewBox="0 0 48 48" fill="none" xmlns="http://www.w3.org/2000/svg">
<g clip-path="url(#clip0_1_3249)">
<path d="M34.0873 29.4835C33.6574 29.0985 32.9968 29.136 32.6139 29.5649C30.4372 31.9972 27.2984 33.3913 24 33.3913C20.7026 33.3913 17.5628 31.9972 15.3861 29.5649C15.001 29.136 14.3426 29.0985 13.9127 29.4835C13.4828 29.8675 13.4473 30.527 13.8313 30.9569C16.4035 33.8306 20.1099 35.4783 24 35.4783C27.8911 35.4783 31.5975 33.8296 34.1687 30.9569C34.5527 30.527 34.5161 29.8675 34.0873 29.4835Z" fill="#C500CB"/>
<path d="M24 0C10.7666 0 0 10.7666 0 24C0 37.2334 10.7666 48 24 48C37.2334 48 48 37.2334 48 24C48 10.7666 37.2334 0 24 0ZM24 45.913C11.9165 45.913 2.08696 36.0835 2.08696 24C2.08696 11.9165 11.9165 2.08696 24 2.08696C36.0835 2.08696 45.913 11.9165 45.913 24C45.913 36.0835 36.0835 45.913 24 45.913Z" fill="#C500CB"/>
<path d="M32.3478 16.6957C29.4709 16.6957 27.1304 19.0362 27.1304 21.9131C27.1304 22.4891 27.5978 22.9565 28.1738 22.9565C28.7498 22.9565 29.2173 22.4891 29.2173 21.9131C29.2173 20.1872 30.6218 18.7826 32.3478 18.7826C34.0737 18.7826 35.4782 20.1872 35.4782 21.9131C35.4782 22.4891 35.9457 22.9565 36.5217 22.9565C37.0977 22.9565 37.5652 22.4891 37.5652 21.9131C37.5652 19.0362 35.2246 16.6957 32.3478 16.6957Z" fill="#C500CB"/>
<path d="M18.7826 21.9131C18.7826 22.4891 19.2501 22.9565 19.8261 22.9565C20.4021 22.9565 20.8696 22.4891 20.8696 21.9131C20.8696 19.0362 18.5291 16.6957 15.6522 16.6957C12.7753 16.6957 10.4348 19.0362 10.4348 21.9131C10.4348 22.4891 10.9023 22.9565 11.4783 22.9565C12.0543 22.9565 12.5218 22.4891 12.5218 21.9131C12.5218 20.1872 13.9263 18.7826 15.6522 18.7826C17.3781 18.7826 18.7826 20.1872 18.7826 21.9131Z" fill="#C500CB"/>
</g>
<defs>
<clipPath id="clip0_1_3249">
<rect width="48" height="48" fill="white"/>
</clipPath>
</defs>
</svg>
