<svg width="24" height="25" viewBox="0 0 24 25" fill="none" xmlns="http://www.w3.org/2000/svg">
<g clip-path="url(#clip0_1_3493)">
<path d="M12 24.5C5.37258 24.5 0 19.1274 0 12.5C0 5.87258 5.37258 0.5 12 0.5C18.6274 0.5 24 5.87258 24 12.5C24 19.1274 18.6274 24.5 12 24.5Z" fill="#26A17B"/>
<path fill-rule="evenodd" clip-rule="evenodd" d="M10.7835 13.673V13.6715C10.866 13.6775 11.2913 13.703 12.24 13.703C12.9975 13.703 13.5307 13.6805 13.7182 13.6715V13.6738C16.6343 13.5455 18.8108 13.0378 18.8108 12.4303C18.8108 11.8235 16.6343 11.3158 13.7182 11.1853V13.1682C13.5278 13.1817 12.9818 13.214 12.2272 13.214C11.322 13.214 10.8682 13.1765 10.7835 13.169V11.1867C7.8735 11.3165 5.70225 11.8243 5.70225 12.4303C5.70225 13.0378 7.8735 13.544 10.7835 13.673ZM10.7835 10.9805V9.206H6.723V6.5H17.7787V9.206H13.7182V10.9798C17.0183 11.1312 19.5 11.7852 19.5 12.5682C19.5 13.3512 17.0183 14.0045 13.7182 14.1567V19.8433H10.7835V14.1552C7.48875 14.0037 5.013 13.3505 5.013 12.5682C5.013 11.786 7.48875 11.1328 10.7835 10.9805Z" fill="white"/>
</g>
<defs>
<clipPath id="clip0_1_3493">
<rect width="24" height="24" fill="white" transform="matrix(-1 0 0 1 24 0.5)"/>
</clipPath>
</defs>
</svg>
